<?xml version="1.0" encoding="UTF-8"?>
<svg version="1.1" xmlns="http://www.w3.org/2000/svg" width="2560" height="1536">
<path d="M0 0 C844.8 0 1689.6 0 2560 0 C2560 506.88 2560 1013.76 2560 1536 C1715.2 1536 870.4 1536 0 1536 C0 1029.12 0 522.24 0 0 Z " fill="#C8102E" transform="translate(0,0)"/>
<path d="M0 0 C371.58 0 743.16 0 1126 0 C1126 202.62 1126 405.24 1126 614 C754.42 614 382.84 614 0 614 C0 411.38 0 208.76 0 0 Z " fill="#FEFEFE" transform="translate(1434,922)"/>
<path d="M0 0 C371.58 0 743.16 0 1126 0 C1126 202.62 1126 405.24 1126 614 C754.42 614 382.84 614 0 614 C0 411.38 0 208.76 0 0 Z " fill="#FEFEFE" transform="translate(0,922)"/>
<path d="M0 0 C371.58 0 743.16 0 1126 0 C1126 202.62 1126 405.24 1126 614 C754.42 614 382.84 614 0 614 C0 411.38 0 208.76 0 0 Z " fill="#FEFEFE" transform="translate(1434,0)"/>
<path d="M0 0 C371.58 0 743.16 0 1126 0 C1126 202.62 1126 405.24 1126 614 C754.42 614 382.84 614 0 614 C0 411.38 0 208.76 0 0 Z " fill="#FEFEFE" transform="translate(0,0)"/>
<path d="M0 0 C11.23809524 5.61904762 11.23809524 5.61904762 15.9765625 8.5390625 C17.04261719 9.19197266 18.10867188 9.84488281 19.20703125 10.51757812 C19.76213379 10.85990479 20.31723633 11.20223145 20.88916016 11.55493164 C23.95423679 13.44441559 27.02810679 15.3194995 30.1015625 17.1953125 C30.74482483 17.58821472 31.38808716 17.98111694 32.05084229 18.38592529 C39.32813655 22.82320085 46.66360504 27.16141966 54 31.5 C64.61190889 37.77942624 75.18100663 44.12293376 85.70898438 50.54199219 C95.09842559 56.26451936 104.53738361 61.89939881 114 67.5 C124.61130098 73.78046857 135.18099227 80.122925 145.70898438 86.54199219 C155.09842559 92.26451936 164.53738361 97.89939881 174 103.5 C184.61130098 109.78046857 195.18099227 116.122925 205.70898438 122.54199219 C215.09842559 128.26451936 224.53738361 133.89939881 234 139.5 C244.61130098 145.78046857 255.18099227 152.122925 265.70898438 158.54199219 C275.09842559 164.26451936 284.53738361 169.89939881 294 175.5 C304.61130098 181.78046857 315.18099227 188.122925 325.70898438 194.54199219 C335.09842559 200.26451936 344.53738361 205.89939881 354 211.5 C364.61130098 217.78046857 375.18099227 224.122925 385.70898438 230.54199219 C395.09842559 236.26451936 404.53738361 241.89939881 414 247.5 C424.61130098 253.78046857 435.18099227 260.122925 445.70898438 266.54199219 C455.09842559 272.26451936 464.53738361 277.89939881 474 283.5 C484.61130098 289.78046857 495.18099227 296.122925 505.70898438 302.54199219 C515.09842559 308.26451936 524.53738361 313.89939881 534 319.5 C544.61130098 325.78046857 555.18099227 332.122925 565.70898438 338.54199219 C575.09842559 344.26451936 584.53738361 349.89939881 594 355.5 C604.61130098 361.78046857 615.18099227 368.122925 625.70898438 374.54199219 C635.77188445 380.67496835 645.89459971 386.70285197 656.03598022 392.70498657 C666.64058162 398.98311072 677.19202015 405.34280043 687.71191406 411.76171875 C693.70000952 415.4095 699.7051893 419.02256052 705.74609375 422.58203125 C706.69558647 423.14188972 706.69558647 423.14188972 707.66426086 423.71305847 C710.71474913 425.51050809 713.76804086 427.30295384 716.82543945 429.08862305 C717.89882568 429.71937744 718.97221191 430.35013184 720.078125 431 C721.03106445 431.556875 721.98400391 432.11375 722.96582031 432.6875 C723.63709961 433.120625 724.30837891 433.55375 725 434 C725 434.33 725 434.66 725 435 C485.75 435 246.5 435 0 435 C0 291.45 0 147.9 0 0 Z " fill="#012169" transform="translate(1536,1101)"/>
<path d="M0 0 C0 143.55 0 287.1 0 435 C-239.25 435 -478.5 435 -725 435 C-721.34181426 432.07345141 -718.14994529 429.79479822 -714.15234375 427.48828125 C-713.59242737 427.16318069 -713.03251099 426.83808014 -712.45562744 426.50312805 C-711.24905903 425.80272834 -710.04151812 425.10400173 -708.83309937 424.40679932 C-705.55478033 422.51427796 -702.28503507 420.60707813 -699.015625 418.69921875 C-698.34375656 418.30730347 -697.67188812 417.91538818 -696.97966003 417.51159668 C-690.33457766 413.62668855 -683.75684695 409.63653002 -677.1875 405.625 C-667.16819007 399.50909552 -657.10217929 393.47801652 -647 387.5 C-636.96290768 381.55968925 -626.9582 375.5716568 -617 369.5 C-606.36671155 363.01673213 -595.6763327 356.63522658 -584.95898438 350.29199219 C-575.60315969 344.75294929 -566.28309988 339.16003861 -557 333.5 C-546.36671155 327.01673213 -535.6763327 320.63522658 -524.95898438 314.29199219 C-515.60315969 308.75294929 -506.28309988 303.16003861 -497 297.5 C-486.36671155 291.01673213 -475.6763327 284.63522658 -464.95898438 278.29199219 C-455.60315969 272.75294929 -446.28309988 267.16003861 -437 261.5 C-426.36671155 255.01673213 -415.6763327 248.63522658 -404.95898438 242.29199219 C-395.60315969 236.75294929 -386.28309988 231.16003861 -377 225.5 C-366.36671155 219.01673213 -355.6763327 212.63522658 -344.95898438 206.29199219 C-335.60315969 200.75294929 -326.28309988 195.16003861 -317 189.5 C-306.36671155 183.01673213 -295.6763327 176.63522658 -284.95898438 170.29199219 C-275.60315969 164.75294929 -266.28309988 159.16003861 -257 153.5 C-246.36671155 147.01673213 -235.6763327 140.63522658 -224.95898438 134.29199219 C-215.60315969 128.75294929 -206.28309988 123.16003861 -197 117.5 C-186.36671155 111.01673213 -175.6763327 104.63522658 -164.95898438 98.29199219 C-155.60315969 92.75294929 -146.28309988 87.16003861 -137 81.5 C-126.36671155 75.01673213 -115.6763327 68.63522658 -104.95898438 62.29199219 C-95.60315969 56.75294929 -86.28309988 51.16003861 -77 45.5 C-66.37674894 39.02285207 -55.69700831 32.64640088 -44.98919678 26.31011963 C-33.77874366 19.67465 -22.62428212 12.95130389 -11.50390625 6.16601562 C-10.41207031 5.50021484 -9.32023438 4.83441406 -8.1953125 4.1484375 C-7.23641113 3.56239746 -6.27750977 2.97635742 -5.28955078 2.37255859 C-1.33191035 0 -1.33191035 0 0 0 Z " fill="#012169" transform="translate(1024,1101)"/>
<path d="M0 0 C239.25 0 478.5 0 725 0 C721.34181426 2.92654859 718.14994529 5.20520178 714.15234375 7.51171875 C713.59242737 7.83681931 713.03251099 8.16191986 712.45562744 8.49687195 C711.24905903 9.19727166 710.04151812 9.89599827 708.83309937 10.59320068 C705.55478033 12.48572204 702.28503507 14.39292187 699.015625 16.30078125 C698.00782234 16.88865417 698.00782234 16.88865417 696.97966003 17.48840332 C690.33457766 21.37331145 683.75684695 25.36346998 677.1875 29.375 C667.16819007 35.49090448 657.10217929 41.52198348 647 47.5 C636.96290768 53.44031075 626.9582 59.4283432 617 65.5 C606.36671155 71.98326787 595.6763327 78.36477342 584.95898438 84.70800781 C575.60315969 90.24705071 566.28309988 95.83996139 557 101.5 C546.36671155 107.98326787 535.6763327 114.36477342 524.95898438 120.70800781 C515.60315969 126.24705071 506.28309988 131.83996139 497 137.5 C486.36671155 143.98326787 475.6763327 150.36477342 464.95898438 156.70800781 C455.60315969 162.24705071 446.28309988 167.83996139 437 173.5 C426.36671155 179.98326787 415.6763327 186.36477342 404.95898438 192.70800781 C395.60315969 198.24705071 386.28309988 203.83996139 377 209.5 C366.36671155 215.98326787 355.6763327 222.36477342 344.95898438 228.70800781 C335.60315969 234.24705071 326.28309988 239.83996139 317 245.5 C306.36671155 251.98326787 295.6763327 258.36477342 284.95898438 264.70800781 C275.60315969 270.24705071 266.28309988 275.83996139 257 281.5 C246.36671155 287.98326787 235.6763327 294.36477342 224.95898438 300.70800781 C215.60315969 306.24705071 206.28309988 311.83996139 197 317.5 C186.36671155 323.98326787 175.6763327 330.36477342 164.95898438 336.70800781 C155.60315969 342.24705071 146.28309988 347.83996139 137 353.5 C126.36671155 359.98326787 115.6763327 366.36477342 104.95898438 372.70800781 C95.60315969 378.24705071 86.28309988 383.83996139 77 389.5 C66.37652452 395.97728477 55.69763138 402.35580681 44.9881897 408.68988037 C37.58607963 413.06858701 30.19918985 417.46920532 22.85546875 421.9453125 C22.20385773 422.34236389 21.5522467 422.73941528 20.88088989 423.14849854 C17.78143427 425.03866412 14.68487781 426.93340628 11.59179688 428.83398438 C10.50318359 429.49978516 9.41457031 430.16558594 8.29296875 430.8515625 C7.3393042 431.43760254 6.38563965 432.02364258 5.40307617 432.62744141 C3 434 3 434 0 435 C0 291.45 0 147.9 0 0 Z " fill="#012169" transform="translate(1536,0)"/>
<path d="M0 0 C239.25 0 478.5 0 725 0 C725 143.55 725 287.1 725 435 C713.76190476 429.38095238 713.76190476 429.38095238 709.0234375 426.4609375 C707.95738281 425.80802734 706.89132812 425.15511719 705.79296875 424.48242188 C705.23786621 424.14009521 704.68276367 423.79776855 704.11083984 423.44506836 C701.04576321 421.55558441 697.97189321 419.6805005 694.8984375 417.8046875 C694.25517517 417.41178528 693.61191284 417.01888306 692.94915771 416.61407471 C685.67186345 412.17679915 678.33639496 407.83858034 671 403.5 C660.38809111 397.22057376 649.81899337 390.87706624 639.29101562 384.45800781 C629.90157441 378.73548064 620.46261639 373.10060119 611 367.5 C600.38869902 361.21953143 589.81900773 354.877075 579.29101562 348.45800781 C569.90157441 342.73548064 560.46261639 337.10060119 551 331.5 C540.38869902 325.21953143 529.81900773 318.877075 519.29101562 312.45800781 C509.90157441 306.73548064 500.46261639 301.10060119 491 295.5 C480.38869902 289.21953143 469.81900773 282.877075 459.29101562 276.45800781 C449.90157441 270.73548064 440.46261639 265.10060119 431 259.5 C420.38869902 253.21953143 409.81900773 246.877075 399.29101562 240.45800781 C389.90157441 234.73548064 380.46261639 229.10060119 371 223.5 C360.38869902 217.21953143 349.81900773 210.877075 339.29101562 204.45800781 C329.90157441 198.73548064 320.46261639 193.10060119 311 187.5 C300.38869902 181.21953143 289.81900773 174.877075 279.29101562 168.45800781 C269.90157441 162.73548064 260.46261639 157.10060119 251 151.5 C240.38869902 145.21953143 229.81900773 138.877075 219.29101562 132.45800781 C209.90157441 126.73548064 200.46261639 121.10060119 191 115.5 C180.38869902 109.21953143 169.81900773 102.877075 159.29101562 96.45800781 C149.90157441 90.73548064 140.46261639 85.10060119 131 79.5 C120.38869902 73.21953143 109.81900773 66.877075 99.29101562 60.45800781 C89.22811555 54.32503165 79.10540029 48.29714803 68.96401978 42.29501343 C58.35941838 36.01688928 47.80797985 29.65719957 37.28808594 23.23828125 C31.29999048 19.5905 25.2948107 15.97743948 19.25390625 12.41796875 C18.6209111 12.04472977 17.98791595 11.67149078 17.33573914 11.28694153 C14.28525087 9.48949191 11.23195914 7.69704616 8.17456055 5.91137695 C7.10117432 5.28062256 6.02778809 4.64986816 4.921875 4 C3.96893555 3.443125 3.01599609 2.88625 2.03417969 2.3125 C1.36290039 1.879375 0.69162109 1.44625 0 1 C0 0.67 0 0.34 0 0 Z " fill="#012169" transform="translate(299,0)"/>
<path d="M0 0 C1.69573932 0.00141177 3.39148169 0.00061597 5.08721924 -0.00221252 C9.67364628 -0.00364306 14.25941524 0.02568765 18.84568977 0.06065726 C23.64493571 0.09198147 28.44419788 0.09485628 33.24353027 0.1007843 C42.32406286 0.11630495 51.40429331 0.15730931 60.48469305 0.20753175 C70.82563061 0.26348063 81.16658285 0.29092566 91.50763416 0.31600893 C112.77283599 0.36822674 134.03776612 0.4561344 155.30273438 0.56762695 C155.39923214 3.32863481 155.47009922 6.08627032 155.52612305 8.84814453 C155.55607109 9.62954048 155.58601913 10.41093643 155.61687469 11.21601105 C155.70538403 17.02270698 155.70538403 17.02270698 153.6582489 19.79316711 C151.30672047 21.36047466 148.89031074 22.4302355 146.30273438 23.56762695 C144.6102384 24.56313898 142.91857328 25.56047224 141.24459839 26.58682251 C139.3611556 27.74098874 137.46297302 28.86634716 135.55859375 29.9855957 C131.31709662 32.48168658 127.08028548 34.98560501 122.84570312 37.4934082 C122.12228729 37.92174957 121.39887146 38.35009094 120.65353394 38.79141235 C113.83851298 42.83230424 107.06661471 46.94187979 100.30273438 51.06762695 C89.66989627 57.55162224 78.97905583 63.93240703 68.26171875 70.27563477 C58.90589406 75.81467766 49.58583426 81.40758834 40.30273438 87.06762695 C29.66944593 93.55089482 18.97906707 99.93240038 8.26171875 106.27563477 C-1.09410594 111.81467766 -10.41416574 117.40758834 -19.69726562 123.06762695 C-30.33055407 129.55089482 -41.02093293 135.93240038 -51.73828125 142.27563477 C-61.09410594 147.81467766 -70.41416574 153.40758834 -79.69726562 159.06762695 C-90.33055407 165.55089482 -101.02093293 171.93240038 -111.73828125 178.27563477 C-121.09410594 183.81467766 -130.41416574 189.40758834 -139.69726562 195.06762695 C-150.33055407 201.55089482 -161.02093293 207.93240038 -171.73828125 214.27563477 C-181.09410594 219.81467766 -190.41416574 225.40758834 -199.69726562 231.06762695 C-210.33055407 237.55089482 -221.02093293 243.93240038 -231.73828125 250.27563477 C-241.09410594 255.81467766 -250.41416574 261.40758834 -259.69726562 267.06762695 C-270.33055407 273.55089482 -281.02093293 279.93240038 -291.73828125 286.27563477 C-301.09410594 291.81467766 -310.41416574 297.40758834 -319.69726562 303.06762695 C-330.33055407 309.55089482 -341.02093293 315.93240038 -351.73828125 322.27563477 C-361.09410594 327.81467766 -370.41416574 333.40758834 -379.69726562 339.06762695 C-390.33055407 345.55089482 -401.02093293 351.93240038 -411.73828125 358.27563477 C-421.09410594 363.81467766 -430.41416574 369.40758834 -439.69726562 375.06762695 C-450.33055407 381.55089482 -461.02093293 387.93240038 -471.73828125 394.27563477 C-481.09410594 399.81467766 -490.41416574 405.40758834 -499.69726562 411.06762695 C-510.33055407 417.55089482 -521.02093293 423.93240038 -531.73828125 430.27563477 C-541.09410594 435.81467766 -550.41416574 441.40758834 -559.69726562 447.06762695 C-570.33055407 453.55089482 -581.02093293 459.93240038 -591.73828125 466.27563477 C-601.09410197 471.81467532 -610.41432906 477.40732414 -619.69726562 483.06762695 C-631.56951456 490.30667715 -643.51124065 497.42383733 -655.48046875 504.5012207 C-656.14070541 504.89193253 -656.80094208 505.28264435 -657.48118591 505.68519592 C-658.71807352 506.416975 -659.95540255 507.14800866 -661.19325256 507.87815857 C-663.74092454 509.3852377 -666.23324601 510.92494721 -668.69726562 512.56762695 C-671.37093096 512.75686405 -673.9393477 512.82848045 -676.61283875 512.80813599 C-677.42802894 512.80984484 -678.24321913 512.81155369 -679.08311206 512.81331432 C-681.82396981 512.8166175 -684.56458459 512.80559193 -687.30541992 512.79467773 C-689.26642857 512.7941138 -691.22743764 512.79442983 -693.18844604 512.79556274 C-698.52077975 512.79613795 -703.85302397 512.78435652 -709.18533683 512.77041483 C-714.75472294 512.75793539 -720.32411097 512.75673917 -725.89350891 512.75436401 C-736.4438455 512.74814104 -746.99414079 512.73171917 -757.54445916 512.71166503 C-769.55396799 512.68933145 -781.56347876 512.678319 -793.57300317 512.66827416 C-818.28111359 512.64735365 -842.98918729 512.61216181 -867.69726562 512.56762695 C-864.9213331 509.65808004 -861.84499828 507.72483407 -858.38867188 505.71606445 C-857.75920151 505.34506622 -857.12973114 504.97406799 -856.48118591 504.59182739 C-855.12147874 503.79090896 -853.76059928 502.99197808 -852.39868164 502.19482422 C-848.74389551 500.05518285 -845.09797257 497.90052837 -841.45117188 495.74731445 C-840.70920563 495.30969788 -839.96723938 494.8720813 -839.20278931 494.42120361 C-832.33067219 490.36309876 -825.50932125 486.22569267 -818.69726562 482.06762695 C-808.06493607 475.58281141 -797.37357404 469.20283916 -786.65625 462.85961914 C-777.30042531 457.32057624 -767.98036551 451.72766557 -758.69726562 446.06762695 C-748.06397718 439.58435908 -737.37359832 433.20285353 -726.65625 426.85961914 C-717.30042531 421.32057624 -707.98036551 415.72766557 -698.69726562 410.06762695 C-688.06397718 403.58435908 -677.37359832 397.20285353 -666.65625 390.85961914 C-657.30042531 385.32057624 -647.98036551 379.72766557 -638.69726562 374.06762695 C-628.06397718 367.58435908 -617.37359832 361.20285353 -606.65625 354.85961914 C-597.30042531 349.32057624 -587.98036551 343.72766557 -578.69726562 338.06762695 C-568.06397718 331.58435908 -557.37359832 325.20285353 -546.65625 318.85961914 C-537.30042531 313.32057624 -527.98036551 307.72766557 -518.69726562 302.06762695 C-508.06397718 295.58435908 -497.37359832 289.20285353 -486.65625 282.85961914 C-477.30042531 277.32057624 -467.98036551 271.72766557 -458.69726562 266.06762695 C-448.06397718 259.58435908 -437.37359832 253.20285353 -426.65625 246.85961914 C-417.30042531 241.32057624 -407.98036551 235.72766557 -398.69726562 230.06762695 C-388.06397718 223.58435908 -377.37359832 217.20285353 -366.65625 210.85961914 C-357.30042531 205.32057624 -347.98036551 199.72766557 -338.69726562 194.06762695 C-328.06397718 187.58435908 -317.37359832 181.20285353 -306.65625 174.85961914 C-297.30042531 169.32057624 -287.98036551 163.72766557 -278.69726562 158.06762695 C-268.06397718 151.58435908 -257.37359832 145.20285353 -246.65625 138.85961914 C-237.30042531 133.32057624 -227.98036551 127.72766557 -218.69726562 122.06762695 C-208.06397718 115.58435908 -197.37359832 109.20285353 -186.65625 102.85961914 C-177.30042531 97.32057624 -167.98036551 91.72766557 -158.69726562 86.06762695 C-148.06397718 79.58435908 -137.37359832 73.20285353 -126.65625 66.85961914 C-117.30042531 61.32057624 -107.98036551 55.72766557 -98.69726562 50.06762695 C-88.73905921 43.99596624 -78.73410696 38.00836987 -68.69726562 32.06762695 C-58.16303676 25.83169756 -47.65869387 19.55002118 -37.19726562 13.19262695 C-36.61589844 12.83950439 -36.03453125 12.48638184 -35.43554688 12.12255859 C-29.11072609 8.53864369 -29.11072609 8.53864369 -23.24417114 4.31544781 C-16.3996178 -1.06015688 -8.24211786 -0.09612925 0 0 Z " fill="#C8102E" transform="translate(868.697265625,1023.432373046875)"/>
<path d="M0 0 C0.81519019 -0.00170885 1.63038039 -0.0034177 2.47027332 -0.00517833 C5.21113107 -0.00848152 7.95174585 0.00254406 10.69258118 0.01345825 C12.65358983 0.01402219 14.6145989 0.01370615 16.5756073 0.01257324 C21.907941 0.01199804 27.24018523 0.02377947 32.57249808 0.03772116 C38.1418842 0.0502006 43.71127223 0.05139681 49.28067017 0.05377197 C59.83100676 0.05999495 70.38130204 0.07641682 80.93162042 0.09647095 C92.94112924 0.11880454 104.95064001 0.12981698 116.96016443 0.13986182 C141.66827484 0.16078234 166.37634855 0.19597418 191.08442688 0.24050903 C187.39111139 3.2471695 183.69157522 5.77696462 179.58052063 8.18972778 C178.95388016 8.55931107 178.32723969 8.92889435 177.68161011 9.30967712 C176.3336802 10.10431912 174.98476652 10.8972943 173.63496399 11.68875122 C170.00768674 13.81608332 166.3880969 15.95642225 162.76802063 18.09597778 C162.03223785 18.53050262 161.29645508 18.96502747 160.53837585 19.41271973 C153.68524512 23.46504773 146.88045971 27.59320158 140.08442688 31.74050903 C129.45192767 38.22505101 118.76073967 44.60529424 108.04341125 50.94851685 C98.68758657 56.48755974 89.36752676 62.08047042 80.08442688 67.74050903 C69.45113843 74.2237769 58.76075958 80.60528246 48.04341125 86.94851685 C38.68758657 92.48755974 29.36752676 98.08047042 20.08442688 103.74050903 C9.45113843 110.2237769 -1.23924042 116.60528246 -11.95658875 122.94851685 C-21.31241343 128.48755974 -30.63247324 134.08047042 -39.91557312 139.74050903 C-50.54886157 146.2237769 -61.23924042 152.60528246 -71.95658875 158.94851685 C-81.31241343 164.48755974 -90.63247324 170.08047042 -99.91557312 175.74050903 C-110.54886157 182.2237769 -121.23924042 188.60528246 -131.95658875 194.94851685 C-141.31241343 200.48755974 -150.63247324 206.08047042 -159.91557312 211.74050903 C-170.54886157 218.2237769 -181.23924042 224.60528246 -191.95658875 230.94851685 C-201.31241343 236.48755974 -210.63247324 242.08047042 -219.91557312 247.74050903 C-230.54886157 254.2237769 -241.23924042 260.60528246 -251.95658875 266.94851685 C-261.31241343 272.48755974 -270.63247324 278.08047042 -279.91557312 283.74050903 C-290.54886157 290.2237769 -301.23924042 296.60528246 -311.95658875 302.94851685 C-321.31241343 308.48755974 -330.63247324 314.08047042 -339.91557312 319.74050903 C-350.54886157 326.2237769 -361.23924042 332.60528246 -371.95658875 338.94851685 C-381.31241343 344.48755974 -390.63247324 350.08047042 -399.91557312 355.74050903 C-410.54886157 362.2237769 -421.23924042 368.60528246 -431.95658875 374.94851685 C-441.31241343 380.48755974 -450.63247324 386.08047042 -459.91557312 391.74050903 C-470.54886157 398.2237769 -481.23924042 404.60528246 -491.95658875 410.94851685 C-501.31241343 416.48755974 -510.63247324 422.08047042 -519.91557312 427.74050903 C-530.54886157 434.2237769 -541.23924042 440.60528246 -551.95658875 446.94851685 C-561.31241343 452.48755974 -570.63247324 458.08047042 -579.91557312 463.74050903 C-590.54049712 470.21867698 -601.22201184 476.59596862 -611.93141174 482.93341064 C-622.99306954 489.4810739 -634.00110815 496.11257447 -644.97221375 502.81082153 C-646.0479364 503.46695435 -647.12365906 504.12308716 -648.23197937 504.79910278 C-649.16469666 505.36943237 -650.09741394 505.93976196 -651.05839539 506.52737427 C-652.00126404 507.09270874 -652.94413269 507.65804321 -653.91557312 508.24050903 C-654.97824685 508.92592144 -656.04092058 509.61133385 -657.13579655 510.31751633 C-660.88521145 512.44348653 -663.90767835 512.73428683 -668.24917603 512.7215271 C-669.30557867 512.72665365 -669.30557867 512.72665365 -670.38332278 512.73188376 C-672.72514499 512.73843227 -675.06580126 512.71653878 -677.40751648 512.6946106 C-679.09325636 512.69348145 -680.7789982 512.69411728 -682.46473694 512.69638062 C-687.0283999 512.69752609 -691.59164049 512.67404385 -696.15520549 512.64608479 C-700.92911167 512.62104331 -705.70302802 512.61872697 -710.47698975 512.61398315 C-719.51146305 512.60156145 -728.54574225 512.56875072 -737.58013016 512.5285852 C-747.86785651 512.48384244 -758.15559222 512.46187414 -768.44339168 512.44180346 C-789.60089374 512.4000174 -810.75822119 512.32968097 -831.91557312 512.24050903 C-832.01207088 509.47950118 -832.08293796 506.72186567 -832.13896179 503.95999146 C-832.16890984 503.1785955 -832.19885788 502.39719955 -832.22971344 501.59212494 C-832.31822277 495.785429 -832.31822277 495.785429 -830.27108765 493.01496887 C-827.91955921 491.44766133 -825.50314948 490.37790048 -822.91557312 489.24050903 C-821.22307714 488.24499701 -819.53141203 487.24766375 -817.85743713 486.22131348 C-815.97399435 485.06714725 -814.07581177 483.94178882 -812.1714325 482.82254028 C-807.92993536 480.3264494 -803.69312423 477.82253098 -799.45854187 475.31472778 C-798.73512604 474.88638641 -798.01171021 474.45804504 -797.26637268 474.01672363 C-790.45135173 469.97583175 -783.67945345 465.86625619 -776.91557312 461.74050903 C-766.28273502 455.25651374 -755.59189458 448.87572896 -744.8745575 442.53250122 C-735.51873281 436.99345832 -726.198673 431.40054765 -716.91557312 425.74050903 C-706.28228467 419.25724116 -695.59190582 412.87573561 -684.8745575 406.53250122 C-675.51873281 400.99345832 -666.198673 395.40054765 -656.91557312 389.74050903 C-646.28228467 383.25724116 -635.59190582 376.87573561 -624.8745575 370.53250122 C-615.51873281 364.99345832 -606.198673 359.40054765 -596.91557312 353.74050903 C-586.28228467 347.25724116 -575.59190582 340.87573561 -564.8745575 334.53250122 C-555.51873281 328.99345832 -546.198673 323.40054765 -536.91557312 317.74050903 C-526.28228467 311.25724116 -515.59190582 304.87573561 -504.8745575 298.53250122 C-495.51873281 292.99345832 -486.198673 287.40054765 -476.91557312 281.74050903 C-466.28228467 275.25724116 -455.59190582 268.87573561 -444.8745575 262.53250122 C-435.51873281 256.99345832 -426.198673 251.40054765 -416.91557312 245.74050903 C-406.28228467 239.25724116 -395.59190582 232.87573561 -384.8745575 226.53250122 C-375.51873281 220.99345832 -366.198673 215.40054765 -356.91557312 209.74050903 C-346.28228467 203.25724116 -335.59190582 196.87573561 -324.8745575 190.53250122 C-315.51873281 184.99345832 -306.198673 179.40054765 -296.91557312 173.74050903 C-286.28228467 167.25724116 -275.59190582 160.87573561 -264.8745575 154.53250122 C-255.51873281 148.99345832 -246.198673 143.40054765 -236.91557312 137.74050903 C-226.28228467 131.25724116 -215.59190582 124.87573561 -204.8745575 118.53250122 C-195.51873281 112.99345832 -186.198673 107.40054765 -176.91557312 101.74050903 C-166.28228467 95.25724116 -155.59190582 88.87573561 -144.8745575 82.53250122 C-135.51873281 76.99345832 -126.198673 71.40054765 -116.91557312 65.74050903 C-106.28228467 59.25724116 -95.59190582 52.87573561 -84.8745575 46.53250122 C-75.51873678 40.99346067 -66.19850968 35.40081185 -56.91557312 29.74050903 C-45.04332418 22.50145883 -33.10159809 15.38429866 -21.13237 8.30691528 C-20.47213333 7.91620346 -19.81189667 7.52549164 -19.13165283 7.12294006 C-17.89476523 6.39116099 -16.6574362 5.66012733 -15.41958618 4.92997742 C-9.78775738 1.59846074 -6.58782513 -0.05013137 0 0 Z " fill="#C8102E" transform="translate(2367.915573120117,-0.240509033203125)"/>
<path d="M0 0 C182.82 0 365.64 0 554 0 C554 109.89 554 219.78 554 333 C538.21494871 323.97997069 538.21494871 323.97997069 532.6171875 320.66015625 C532.00328156 320.29623276 531.38937561 319.93230927 530.75686646 319.55735779 C528.79541389 318.39379704 526.83511576 317.22831108 524.875 316.0625 C524.18680176 315.65370605 523.49860352 315.24491211 522.78955078 314.82373047 C512.58776216 308.76254397 502.42693575 302.63739328 492.29486084 296.46047974 C482.90415121 290.73710131 473.46393007 285.1013787 464 279.5 C453.38869902 273.21953143 442.81900773 266.877075 432.29101562 260.45800781 C422.90157441 254.73548064 413.46261639 249.10060119 404 243.5 C393.38869902 237.21953143 382.81900773 230.877075 372.29101562 224.45800781 C362.90157441 218.73548064 353.46261639 213.10060119 344 207.5 C333.38869902 201.21953143 322.81900773 194.877075 312.29101562 188.45800781 C302.90157441 182.73548064 293.46261639 177.10060119 284 171.5 C273.38869902 165.21953143 262.81900773 158.877075 252.29101562 152.45800781 C242.90157441 146.73548064 233.46261639 141.10060119 224 135.5 C213.38869902 129.21953143 202.81900773 122.877075 192.29101562 116.45800781 C182.90157441 110.73548064 173.46261639 105.10060119 164 99.5 C153.38869902 93.21953143 142.81900773 86.877075 132.29101562 80.45800781 C122.90157441 74.73548064 113.46261639 69.10060119 104 63.5 C93.38869902 57.21953143 82.81900773 50.877075 72.29101562 44.45800781 C62.9015611 38.73547253 53.46209721 33.10149562 44 27.5 C33.93838267 21.54013035 23.88825598 15.56207309 13.88085938 9.51147461 C12.63292911 8.75743575 11.38423727 8.00465579 10.13476562 7.25317383 C8.42098546 6.22189503 6.71039797 5.18531608 5 4.1484375 C4.030625 3.56239746 3.06125 2.97635742 2.0625 2.37255859 C1.381875 1.91961426 0.70125 1.46666992 0 1 C0 0.67 0 0.34 0 0 Z " fill="#012169" transform="translate(2006,1024)"/>
<path d="M0 0 C182.82 0 365.64 0 554 0 C550.16594483 3.06724414 546.68910326 5.48835655 542.49609375 7.94921875 C541.86945328 8.31880203 541.24281281 8.68838531 540.59718323 9.06916809 C539.24925332 9.86381009 537.90033964 10.65678527 536.55053711 11.44824219 C532.92325986 13.57557429 529.30367002 15.71591322 525.68359375 17.85546875 C524.94781097 18.28999359 524.2120282 18.72451843 523.45394897 19.17221069 C516.60081824 23.22453869 509.79603283 27.35269255 503 31.5 C492.36750079 37.98454198 481.67631279 44.36478521 470.95898438 50.70800781 C461.60315969 56.24705071 452.28309988 61.83996139 443 67.5 C432.36671155 73.98326787 421.6763327 80.36477342 410.95898438 86.70800781 C401.60315969 92.24705071 392.28309988 97.83996139 383 103.5 C372.36671155 109.98326787 361.6763327 116.36477342 350.95898438 122.70800781 C341.60315969 128.24705071 332.28309988 133.83996139 323 139.5 C312.36671155 145.98326787 301.6763327 152.36477342 290.95898438 158.70800781 C281.60315969 164.24705071 272.28309988 169.83996139 263 175.5 C252.36671155 181.98326787 241.6763327 188.36477342 230.95898438 194.70800781 C221.60315969 200.24705071 212.28309988 205.83996139 203 211.5 C192.36671155 217.98326787 181.6763327 224.36477342 170.95898438 230.70800781 C161.60315969 236.24705071 152.28309988 241.83996139 143 247.5 C132.36671155 253.98326787 121.6763327 260.36477342 110.95898438 266.70800781 C101.60315969 272.24705071 92.28309988 277.83996139 83 283.5 C72.37444336 289.97855367 61.69261899 296.35681341 50.98214722 302.69390869 C39.97671731 309.20709106 29.0260943 315.80562514 18.11914062 322.48242188 C17.04986328 323.13533203 15.98058594 323.78824219 14.87890625 324.4609375 C13.9566626 325.02603027 13.03441895 325.59112305 12.08422852 326.17333984 C8.10359575 328.53090292 4.04419781 330.75322344 0 333 C0 223.11 0 113.22 0 0 Z " fill="#012169" transform="translate(0,1024)"/>
<path d="M0 0 C15.78505129 9.02002931 15.78505129 9.02002931 21.3828125 12.33984375 C21.99671844 12.70376724 22.61062439 13.06769073 23.24313354 13.44264221 C25.20458611 14.60620296 27.16488424 15.77168892 29.125 16.9375 C29.81319824 17.34629395 30.50139648 17.75508789 31.21044922 18.17626953 C41.41223784 24.23745603 51.57306425 30.36260672 61.70513916 36.53952026 C71.09584879 42.26289869 80.53606993 47.8986213 90 53.5 C100.61130098 59.78046857 111.18099227 66.122925 121.70898438 72.54199219 C131.09842559 78.26451936 140.53738361 83.89939881 150 89.5 C160.61130098 95.78046857 171.18099227 102.122925 181.70898438 108.54199219 C191.09842559 114.26451936 200.53738361 119.89939881 210 125.5 C220.61130098 131.78046857 231.18099227 138.122925 241.70898438 144.54199219 C251.09842559 150.26451936 260.53738361 155.89939881 270 161.5 C280.61130098 167.78046857 291.18099227 174.122925 301.70898438 180.54199219 C311.09842559 186.26451936 320.53738361 191.89939881 330 197.5 C340.61130098 203.78046857 351.18099227 210.122925 361.70898438 216.54199219 C371.09842559 222.26451936 380.53738361 227.89939881 390 233.5 C400.61130098 239.78046857 411.18099227 246.122925 421.70898438 252.54199219 C431.09842559 258.26451936 440.53738361 263.89939881 450 269.5 C460.61130098 275.78046857 471.18099227 282.122925 481.70898438 288.54199219 C491.0984389 294.26452747 500.53790279 299.89850438 510 305.5 C520.06161733 311.45986965 530.11174402 317.43792691 540.11914062 323.48852539 C541.36707089 324.24256425 542.61576273 324.99534421 543.86523438 325.74682617 C545.57901454 326.77810497 547.28960203 327.81468392 549 328.8515625 C549.969375 329.43760254 550.93875 330.02364258 551.9375 330.62744141 C552.618125 331.08038574 553.29875 331.53333008 554 332 C554 332.33 554 332.66 554 333 C371.18 333 188.36 333 0 333 C0 223.11 0 113.22 0 0 Z " fill="#012169" transform="translate(0,179)"/>
<path d="M0 0 C0 109.89 0 219.78 0 333 C-182.82 333 -365.64 333 -554 333 C-550.16594483 329.93275586 -546.68910326 327.51164345 -542.49609375 325.05078125 C-541.86945328 324.68119797 -541.24281281 324.31161469 -540.59718323 323.93083191 C-539.24925332 323.13618991 -537.90033964 322.34321473 -536.55053711 321.55175781 C-532.92325986 319.42442571 -529.30367002 317.28408678 -525.68359375 315.14453125 C-524.57991959 314.49274399 -524.57991959 314.49274399 -523.45394897 313.82778931 C-516.60081824 309.77546131 -509.79603283 305.64730745 -503 301.5 C-492.36750079 295.01545802 -481.67631279 288.63521479 -470.95898438 282.29199219 C-461.60315969 276.75294929 -452.28309988 271.16003861 -443 265.5 C-432.36671155 259.01673213 -421.6763327 252.63522658 -410.95898438 246.29199219 C-401.60315969 240.75294929 -392.28309988 235.16003861 -383 229.5 C-372.36671155 223.01673213 -361.6763327 216.63522658 -350.95898438 210.29199219 C-341.60315969 204.75294929 -332.28309988 199.16003861 -323 193.5 C-312.36671155 187.01673213 -301.6763327 180.63522658 -290.95898438 174.29199219 C-281.60315969 168.75294929 -272.28309988 163.16003861 -263 157.5 C-252.36671155 151.01673213 -241.6763327 144.63522658 -230.95898438 138.29199219 C-221.60315969 132.75294929 -212.28309988 127.16003861 -203 121.5 C-192.36671155 115.01673213 -181.6763327 108.63522658 -170.95898438 102.29199219 C-161.60315969 96.75294929 -152.28309988 91.16003861 -143 85.5 C-132.36671155 79.01673213 -121.6763327 72.63522658 -110.95898438 66.29199219 C-101.60315969 60.75294929 -92.28309988 55.16003861 -83 49.5 C-73.04179359 43.42833929 -63.03684134 37.44074291 -53 31.5 C-42.46577114 25.26407061 -31.96142824 18.98239423 -21.5 12.625 C-20.91863281 12.27187744 -20.33726562 11.91875488 -19.73828125 11.55493164 C-14.5645255 8.41086869 -9.39783243 5.25985733 -4.28125 2.0234375 C-1 0 -1 0 0 0 Z " fill="#012169" transform="translate(2560,179)"/>
<path d="M0 0 C25.59250723 -0.39907695 51.18454085 -0.69784821 76.77954483 -0.88080692 C88.66692042 -0.96805917 100.55235075 -1.08676432 112.43847656 -1.2824707 C122.81197607 -1.45318848 133.18406565 -1.56188453 143.55893111 -1.59950441 C149.04119069 -1.62146014 154.51942106 -1.67214115 160.00037384 -1.79741096 C185.81271213 -2.36468103 204.67725759 -1.36708576 225.41628265 15.01081276 C229.00199475 17.77142926 232.81193388 20.00620249 236.75 22.21875 C237.97287733 22.93817237 239.19446933 23.65978974 240.4140625 24.38476562 C240.99833008 24.72934814 241.58259766 25.07393066 242.18457031 25.42895508 C253.40984331 32.05150384 264.58116231 38.7572001 275.70898438 45.54199219 C285.09842559 51.26451936 294.53738361 56.89939881 304 62.5 C314.61130098 68.78046857 325.18099227 75.122925 335.70898438 81.54199219 C345.09842559 87.26451936 354.53738361 92.89939881 364 98.5 C374.61130098 104.78046857 385.18099227 111.122925 395.70898438 117.54199219 C405.09842559 123.26451936 414.53738361 128.89939881 424 134.5 C434.61130098 140.78046857 445.18099227 147.122925 455.70898438 153.54199219 C465.09842559 159.26451936 474.53738361 164.89939881 484 170.5 C494.61130098 176.78046857 505.18099227 183.122925 515.70898438 189.54199219 C525.09842559 195.26451936 534.53738361 200.89939881 544 206.5 C554.61130098 212.78046857 565.18099227 219.122925 575.70898438 225.54199219 C585.09842559 231.26451936 594.53738361 236.89939881 604 242.5 C614.61130098 248.78046857 625.18099227 255.122925 635.70898438 261.54199219 C645.09842559 267.26451936 654.53738361 272.89939881 664 278.5 C674.61130098 284.78046857 685.18099227 291.122925 695.70898438 297.54199219 C705.09842559 303.26451936 714.53738361 308.89939881 724 314.5 C734.61130098 320.78046857 745.18099227 327.122925 755.70898438 333.54199219 C765.09842764 339.26452061 774.53746233 344.89926307 784 350.5 C795.20176163 357.13073564 806.363223 363.82235442 817.47460938 370.60351562 C818.49232422 371.22419922 819.51003906 371.84488281 820.55859375 372.484375 C821.58577515 373.14346359 822.61295654 373.80255219 823.67126465 374.48161316 C827.03748078 376.5456852 830.5026789 378.14560036 834.10961914 379.74787903 C850.897866 387.69844156 850.897866 387.69844156 854.40515327 394.87533951 C856.51016717 403.04371937 855.87272588 411.36949676 855.44140625 419.71484375 C855.39469145 422.38435882 855.35792414 425.05218868 855.33421326 427.72181702 C855.2570108 433.99526972 855.05271623 440.25760691 854.80047601 446.52619702 C854.51932588 453.67113711 854.38318577 460.81666007 854.25809014 467.96576869 C853.99795952 482.64948974 853.55934738 497.32455047 853 512 C851.2443213 511.04546284 849.48901755 510.09023599 847.73387146 509.13471985 C846.75634635 508.60285222 845.77882124 508.07098459 844.77167416 507.52299976 C841.44410869 505.69454478 838.17442938 503.79479881 834.91015625 501.85546875 C834.29200546 501.48871536 833.67385468 501.12196198 833.03697205 500.74409485 C831.04419001 499.56071978 829.05326261 498.37426864 827.0625 497.1875 C825.64389293 496.34372861 824.2252729 495.49997901 822.80664062 494.65625 C813.27004917 488.97821763 803.77248311 483.23819878 794.29568481 477.46102905 C784.9047055 471.73745757 775.46421483 466.10154725 766 460.5 C755.38869902 454.21953143 744.81900773 447.877075 734.29101562 441.45800781 C724.90157441 435.73548064 715.46261639 430.10060119 706 424.5 C695.38869902 418.21953143 684.81900773 411.877075 674.29101562 405.45800781 C664.90157441 399.73548064 655.46261639 394.10060119 646 388.5 C635.38869902 382.21953143 624.81900773 375.877075 614.29101562 369.45800781 C604.90157441 363.73548064 595.46261639 358.10060119 586 352.5 C575.38869902 346.21953143 564.81900773 339.877075 554.29101562 333.45800781 C544.90157441 327.73548064 535.46261639 322.10060119 526 316.5 C515.38869902 310.21953143 504.81900773 303.877075 494.29101562 297.45800781 C484.90157441 291.73548064 475.46261639 286.10060119 466 280.5 C455.38869902 274.21953143 444.81900773 267.877075 434.29101562 261.45800781 C424.90157441 255.73548064 415.46261639 250.10060119 406 244.5 C395.38869902 238.21953143 384.81900773 231.877075 374.29101562 225.45800781 C364.90157441 219.73548064 355.46261639 214.10060119 346 208.5 C335.38869902 202.21953143 324.81900773 195.877075 314.29101562 189.45800781 C304.90157441 183.73548064 295.46261639 178.10060119 286 172.5 C275.38869902 166.21953143 264.81900773 159.877075 254.29101562 153.45800781 C244.90157441 147.73548064 235.46261639 142.10060119 226 136.5 C215.38869902 130.21953143 204.81900773 123.877075 194.29101562 117.45800781 C184.90157441 111.73548064 175.46261639 106.10060119 166 100.5 C155.38869902 94.21953143 144.81900773 87.877075 134.29101562 81.45800781 C124.90157441 75.73548064 115.46261639 70.10060119 106 64.5 C95.38869902 58.21953143 84.81900773 51.877075 74.29101562 45.45800781 C64.90156366 39.73547409 55.46219892 34.10132061 46 28.5 C35.97302008 22.56157479 25.96030461 16.60082877 15.99072266 10.56640625 C14.75629642 9.81948307 13.52127876 9.07353638 12.28564453 8.32861328 C10.58707511 7.30407196 8.89112421 6.27519318 7.1953125 5.24609375 C6.23641113 4.66529053 5.27750977 4.0844873 4.28955078 3.48608398 C2 2 2 2 0 0 Z " fill="#C8102E" transform="translate(1707,1024)"/>
<path d="M0 0 C14.74948317 8.40587414 14.74948317 8.40587414 21.3828125 12.33984375 C21.99671844 12.70376724 22.61062439 13.06769073 23.24313354 13.44264221 C25.20458611 14.60620296 27.16488424 15.77168892 29.125 16.9375 C29.81319824 17.34629395 30.50139648 17.75508789 31.21044922 18.17626953 C41.41223784 24.23745603 51.57306425 30.36260672 61.70513916 36.53952026 C71.09584879 42.26289869 80.53606993 47.8986213 90 53.5 C100.61130098 59.78046857 111.18099227 66.122925 121.70898438 72.54199219 C131.09842559 78.26451936 140.53738361 83.89939881 150 89.5 C160.61130098 95.78046857 171.18099227 102.122925 181.70898438 108.54199219 C191.09842559 114.26451936 200.53738361 119.89939881 210 125.5 C220.61130098 131.78046857 231.18099227 138.122925 241.70898438 144.54199219 C251.09842559 150.26451936 260.53738361 155.89939881 270 161.5 C280.61130098 167.78046857 291.18099227 174.122925 301.70898438 180.54199219 C311.09842559 186.26451936 320.53738361 191.89939881 330 197.5 C340.61130098 203.78046857 351.18099227 210.122925 361.70898438 216.54199219 C371.09842559 222.26451936 380.53738361 227.89939881 390 233.5 C400.61130098 239.78046857 411.18099227 246.122925 421.70898438 252.54199219 C431.09842559 258.26451936 440.53738361 263.89939881 450 269.5 C460.61130098 275.78046857 471.18099227 282.122925 481.70898438 288.54199219 C491.09842559 294.26451936 500.53738361 299.89939881 510 305.5 C520.61130098 311.78046857 531.18099227 318.122925 541.70898438 324.54199219 C551.09842559 330.26451936 560.53738361 335.89939881 570 341.5 C580.61130098 347.78046857 591.18099227 354.122925 601.70898438 360.54199219 C611.09842559 366.26451936 620.53738361 371.89939881 630 377.5 C640.61130098 383.78046857 651.18099227 390.122925 661.70898438 396.54199219 C671.09842559 402.26451936 680.53738361 407.89939881 690 413.5 C700.61130098 419.78046857 711.18099227 426.122925 721.70898438 432.54199219 C731.09842559 438.26451936 740.53738361 443.89939881 750 449.5 C760.61064713 455.78008158 771.18022552 462.1213157 781.70697021 468.54098511 C790.46056288 473.87731888 799.25803072 479.13503629 808.08203125 484.35406494 C818.51490645 490.52520787 828.92789401 496.7257613 839.26263428 503.06027222 C840.96822858 504.10552919 842.67574745 505.14764368 844.38330078 506.18969727 C845.39118652 506.81030029 846.39907227 507.43090332 847.4375 508.0703125 C848.32308594 508.61445801 849.20867188 509.15860352 850.12109375 509.71923828 C850.74113281 510.14188965 851.36117187 510.56454102 852 511 C852 511.33 852 511.66 852 512 C826.53788009 512.39909045 801.07623629 512.69785462 775.6116066 512.88080692 C763.78475959 512.96805642 751.95986803 513.08675592 740.13427734 513.2824707 C729.81351547 513.45319734 719.49417089 513.56188652 709.17203593 513.59950441 C703.7177127 513.62145876 698.26743973 513.67212982 692.81443024 513.79741096 C667.05260523 514.36651946 648.29018044 513.31396258 627.58724213 496.98918724 C623.99926808 494.23059263 620.1883851 491.99454788 616.25 489.78125 C615.02713122 489.06181309 613.80554067 488.34019343 612.5859375 487.61523438 C612.00166992 487.27065186 611.41740234 486.92606934 610.81542969 486.57104492 C599.59015669 479.94849616 588.41883769 473.2427999 577.29101562 466.45800781 C567.90157441 460.73548064 558.46261639 455.10060119 549 449.5 C538.38869902 443.21953143 527.81900773 436.877075 517.29101562 430.45800781 C507.90157441 424.73548064 498.46261639 419.10060119 489 413.5 C478.38869902 407.21953143 467.81900773 400.877075 457.29101562 394.45800781 C447.90157441 388.73548064 438.46261639 383.10060119 429 377.5 C418.38869902 371.21953143 407.81900773 364.877075 397.29101562 358.45800781 C387.90157441 352.73548064 378.46261639 347.10060119 369 341.5 C358.38869902 335.21953143 347.81900773 328.877075 337.29101562 322.45800781 C327.90157441 316.73548064 318.46261639 311.10060119 309 305.5 C298.38869902 299.21953143 287.81900773 292.877075 277.29101562 286.45800781 C267.90157441 280.73548064 258.46261639 275.10060119 249 269.5 C238.38869902 263.21953143 227.81900773 256.877075 217.29101562 250.45800781 C207.90157441 244.73548064 198.46261639 239.10060119 189 233.5 C178.38869902 227.21953143 167.81900773 220.877075 157.29101562 214.45800781 C147.90157441 208.73548064 138.46261639 203.10060119 129 197.5 C118.38869902 191.21953143 107.81900773 184.877075 97.29101562 178.45800781 C87.90157236 172.73547939 78.46253767 167.10073693 69 161.5 C57.79823837 154.86926436 46.636777 148.17764558 35.52539062 141.39648438 C34.50767578 140.77580078 33.48996094 140.15511719 32.44140625 139.515625 C31.41422485 138.85653641 30.38704346 138.19744781 29.32873535 137.51838684 C25.96251922 135.4543148 22.4973211 133.85439964 18.89038086 132.25212097 C2.102134 124.30155844 2.102134 124.30155844 -1.40515327 117.12466049 C-3.51016717 108.95628063 -2.87272588 100.63050324 -2.44140625 92.28515625 C-2.39469145 89.61564118 -2.35792414 86.94781132 -2.33421326 84.27818298 C-2.2570108 78.00473028 -2.05271623 71.74239309 -1.80047601 65.47380298 C-1.51932588 58.32886289 -1.38318577 51.18333993 -1.25809014 44.03423131 C-0.99795952 29.35051026 -0.55934738 14.67544953 0 0 Z " fill="#C8102E" transform="translate(0,0)"/>
</svg>
